#!OML:ASF H:\Dans Jumps\Project 1\Capture day 1\Session 1\subject.ASF
:FULLY-SPECIFIED
:DEGREES
122
root 0.27739 17.5774 -13.928 6.89438 0.139209 -1.37448
lowerback -2.75985 -0.264376 0.0656839
upperback 2.5846 -0.415055 1.52893
thorax 4.22266 -0.22953 1.51412
lowerneck -13.8573 0.140843 -1.96921
upperneck 29.537 0.301803 1.40554
head 11.9772 0.0942984 0.91004
rclavicle -3.97569e-016 -7.95139e-016
rhumerus -18.1304 -13.6637 -84.9626
rradius 23.4192
rwrist 33.4621
rhand -19.4869 -26.5483
rfingers 7.12502
rthumb 6.83518 -56.418
lclavicle -3.97569e-016 -7.95139e-016
lhumerus -14.5293 -5.78228 91.4534
lradius 18.4825
lwrist 1.34624
lhand -25.7665 -3.98138
lfingers 7.12502
lthumb 0.771267 25.997
rfemur -12.3214 -2.82131 19.5465
rtibia 20.1238
rfoot -13.8231 -2.98414
rtoes 10.8726
lfemur -10.7737 6.63445 -17.5466
ltibia 17.5318
lfoot -10.4074 7.25576
ltoes -3.45727
123
root 0.278446 17.5771 -13.9308 6.88593 0.143774 -1.3697
lowerback -2.7507 -0.271523 0.0581526
upperback 2.58548 -0.424274 1.53156
thorax 4.21871 -0.234378 1.52049
lowerneck -13.8882 0.14025 -1.97272
upperneck 29.552 0.301763 1.40761
head 11.9896 0.0940815 0.911699
rclavicle -2.88238e-015 1.98785e-015
rhumerus -18.0104 -13.5239 -85.0399
rradius 23.4794
rwrist 33.3535
rhand -19.4617 -26.5474
rfingers 7.12502
rthumb 6.85946 -56.4163
lclavicle -2.88238e-015 1.98785e-015
lhumerus -14.4846 -5.90141 91.5172
lradius 18.5945
lwrist 1.48574
lhand -25.8063 -4.09839
lfingers 7.12502
lthumb 0.732785 25.8801
rfemur -12.3285 -2.81931 19.5369
rtibia 20.1391
rfoot -13.8255 -2.99078
rtoes 10.8675
lfemur -10.781 6.64003 -17.5552
ltibia 17.5425
lfoot -10.411 7.24328
ltoes -3.45609
124
root 0.279762 17.5768 -13.9335 6.87548 0.15163 -1.36213
lowerback -2.7422 -0.279333 0.0513481
upperback 2.59128 -0.434463 1.53351
thorax 4.22026 -0.239711 1.52571
lowerneck -13.9372 0.136448 -1.98478
upperneck 29.5743 0.299112 1.41201
head 12.0086 0.0920303 0.915496
rclavicle -3.67752e-015 3.18055e-015
rhumerus -17.8837 -13.3934 -85.1145
rradius 23.5296
rwrist 33.2446
rhand -19.4434 -26.5358
rfingers 7.12502
rthumb 6.87717 -56.4041
lclavicle -3.67752e-015 3.18055e-015
lhumerus -14.4331 -6.00514 91.5815
lradius 18.6941
lwrist 1.60028
lhand -25.8351 -4.24042
lfingers 7.12502
lthumb 0.70501 25.7382
rfemur -12.3339 -2.82603 19.5238
rtibia 20.1561
rfoot -13.8278 -2.99558
rtoes 10.8388
lfemur -10.785 6.64584 -17.5678
ltibia 17.5519
lfoot -10.4158 7.22797
ltoes -3.45702
125
root 0.281199 17.5765 -13.9362 6.86481 0.161117 -1.35432
lowerback -2.73231 -0.287876 0.0460972
upperback 2.59697 -0.445687 1.53546
thorax 4.22092 -0.245508 1.52999
lowerneck -13.9861 0.131658 -1.99964
upperneck 29.5987 0.295853 1.41627
head 12.0285 0.0893641 0.919661
rclavicle 3.72721e-015 5.76476e-015
rhumerus -17.7614 -13.2719 -85.1854
rradius 23.5745
rwrist 33.1419
rhand -19.4251 -26.5234
rfingers 7.12502
rthumb 6.89483 -56.3911
lclavicle 3.72721e-015 5.76476e-015
lhumerus -14.3857 -6.0897 91.6452
lradius 18.7818
lwrist 1.67965
lhand -25.8709 -4.41691
lfingers 7.12502
lthumb 0.670474 25.5618
rfemur -12.3395 -2.83474 19.5103
rtibia 20.1737
rfoot -13.8285 -3.00067
rtoes 10.8038
lfemur -10.7893 6.65216 -17.5813
ltibia 17.5617
lfoot -10.4202 7.21229
ltoes -3.46278
126
root 0.282848 17.5762 -13.9387 6.85319 0.171869 -1.34445
lowerback -2.72332 -0.296695 0.0408042
upperback 2.60566 -0.457324 1.53723
thorax 4.22522 -0.251531 1.53409
lowerneck -14.0433 0.125868 -2.01927
upperneck 29.6248 0.292215 1.42202
head 12.0508 0.0861903 0.925215
rclavicle 4.47266e-015 -1.15295e-014
rhumerus -17.6362 -13.1635 -85.2528
rradius 23.6102
rwrist 33.0438
rhand -19.42 -26.4983
rfingers 7.12502
rthumb 6.89973 -56.3658
lclavicle 4.47266e-015 -1.15295e-014
lhumerus -14.3331 -6.14943 91.7079
lradius 18.8657
lwrist 1.75266
lhand -25.8563 -4.52346
lfingers 7.12502
lthumb 0.684499 25.4552
rfemur -12.3439 -2.85003 19.4941
rtibia 20.1914
rfoot -13.8287 -3.00125
rtoes 10.7643
lfemur -10.7926 6.66162 -17.5979
ltibia 17.5722
lfoot -10.4271 7.19281
ltoes -3.47181
127
root 0.284144 17.5759 -13.9414 6.84186 0.175215 -1.34058
lowerback -2.70713 -0.304805 0.0347864
upperback 2.60742 -0.467915 1.54153
thorax 4.21825 -0.25704 1.5413
lowerneck -14.0651 0.125972 -2.02594
upperneck 29.6364 0.295498 1.41888
head 12.0599 0.0864312 0.925866
rclavicle -1.78906e-015 -5.96354e-016
rhumerus -17.532 -13.0757 -85.3146
rradius 23.6461
rwrist 32.978
rhand -19.429 -26.4702
rfingers 7.12502
rthumb 6.89105 -56.338
lclavicle -1.78906e-015 -5.96354e-016
lhumerus -14.3021 -6.2002 91.7691
lradius 18.9489
lwrist 1.81846
lhand -25.8436 -4.59424
lfingers 7.12502
lthumb 0.696799 25.3844
rfemur -12.3504 -2.84037 19.4855
rtibia 20.2093
rfoot -13.8263 -3.01804
rtoes 10.733
lfemur -10.7965 6.67059 -17.6065
ltibia 17.5837
lfoot -10.4323 7.1799
ltoes -3.4693
128
root 0.285502 17.5756 -13.944 6.83085 0.174894 -1.33664
lowerback -2.6908 -0.311881 0.0282407
upperback 2.60861 -0.4771 1.54601
thorax 4.21056 -0.261863 1.54907
lowerneck -14.0803 0.127839 -2.03368
upperneck 29.6428 0.30128 1.41648
head 12.0655 0.0877808 0.927249
rclavicle -5.31749e-015 1.05356e-014
rhumerus -17.4316 -13.0047 -85.372
rradius 23.671
rwrist 32.9322
rhand -19.4359 -26.4558
rfingers 7.12502
rthumb 6.88439 -56.3239
lclavicle -5.31749e-015 1.05356e-014
lhumerus -14.2743 -6.24371 91.8307
lradius 19.0242
lwrist 1.88762
lhand -25.8293 -4.63706
lfingers 7.12502
lthumb 0.7106 25.3415
rfemur -12.3572 -2.82868 19.4762
rtibia 20.2279
rfoot -13.8246 -3.0321
rtoes 10.709
lfemur -10.7993 6.68138 -17.6156
ltibia 17.5944
lfoot -10.4375 7.16908
ltoes -3.46674
129
root 0.286966 17.5752 -13.9465 6.81937 0.170775 -1.332
lowerback -2.67384 -0.317699 0.0222715
upperback 2.61085 -0.484591 1.5492
thorax 4.20356 -0.265812 1.55531
lowerneck -14.0953 0.12984 -2.03969
upperneck 29.6468 0.30716 1.41286
head 12.0701 0.0892239 0.927871
rclavicle 7.95139e-016 -7.95139e-016
rhumerus -17.3322 -12.9508 -85.4276
rradius 23.6858
rwrist 32.9031
rhand -19.4419 -26.4446
rfingers 7.12502
rthumb 6.8786 -56.3128
lclavicle 7.95139e-016 -7.95139e-016
lhumerus -14.2483 -6.28468 91.8909
lradius 19.0932
lwrist 1.95903
lhand -25.8093 -4.63839
lfingers 7.12502
lthumb 0.729967 25.3401
rfemur -12.3636 -2.81812 19.4655
rtibia 20.2465
rfoot -13.8232 -3.04148
rtoes 10.6867
lfemur -10.8007 6.69173 -17.6261
ltibia 17.6057
lfoot -10.4423 7.16225
ltoes -3.45924
130
root 0.2886 17.5749 -13.9486 6.80798 0.164412 -1.32258
lowerback -2.6593 -0.322238 0.0143579
upperback 2.61348 -0.490203 1.54946
thorax 4.19827 -0.268842 1.55972
lowerneck -14.1071 0.131058 -2.04767
upperneck 29.6478 0.311555 1.412
head 12.0728 0.0901529 0.929613
rclavicle 3.72721e-015 -6.55989e-015
rhumerus -17.237 -12.9093 -85.4808
rradius 23.6911
rwrist 32.8839
rhand -19.4516 -26.426
rfingers 7.12502
rthumb 6.8692 -56.2946
lclavicle 3.72721e-015 -6.55989e-015
lhumerus -14.2268 -6.33115 91.9498
lradius 19.1548
lwrist 2.02878
lhand -25.7948 -4.63474
lfingers 7.12502
lthumb 0.743936 25.3437
rfemur -12.3689 -2.816 19.4485
rtibia 20.2651
rfoot -13.8243 -3.04078
rtoes 10.6683
lfemur -10.7997 6.70108 -17.6426
ltibia 17.6163
lfoot -10.4494 7.15679
ltoes -3.44008
131
root 0.290209 17.5746 -13.9508 6.79885 0.159984 -1.31623
lowerback -2.64327 -0.326715 0.0103306
upperback 2.61377 -0.49586 1.54956
thorax 4.18966 -0.271755 1.56179
lowerneck -14.1182 0.132764 -2.04944
upperneck 29.6519 0.316456 1.40619
head 12.0767 0.0913504 0.928517
rclavicle -4.37326e-015 9.74045e-015
rhumerus -17.1505 -12.8747 -85.5325
rradius 23.6944
rwrist 32.871
rhand -19.4584 -26.4075
rfingers 7.12502
rthumb 6.86268 -56.2762
lclavicle -4.37326e-015 9.74045e-015
lhumerus -14.2125 -6.38379 92.0071
lradius 19.2105
lwrist 2.10041
lhand -25.789 -4.61045
lfingers 7.12502
lthumb 0.749571 25.368
rfemur -12.3759 -2.81281 19.4353
rtibia 20.2821
rfoot -13.8249 -3.04231
rtoes 10.6608
lfemur -10.8024 6.71085 -17.6555
ltibia 17.6282
lfoot -10.457 7.14863
ltoes -3.41649
132
root 0.291856 17.5743 -13.953 6.7908 0.156806 -1.3121
lowerback -2.6265 -0.330412 0.0108519
upperback 2.61301 -0.50062 1.54856
thorax 4.17948 -0.274055 1.56022
lowerneck -14.1297 0.133907 -2.04884
upperneck 29.6591 0.320238 1.39931
head 12.0819 0.0921635 0.926484
rclavicle -3.37934e-015 5.96354e-016
rhumerus -17.0718 -12.8454 -85.5829
rradius 23.6956
rwrist 32.8611
rhand -19.4683 -26.3767
rfingers 7.12502
rthumb 6.85311 -56.2457
lclavicle -3.37934e-015 5.96354e-016
lhumerus -14.2046 -6.43843 92.0618
lradius 19.2625
lwrist 2.17185
lhand -25.7758 -4.55274
lfingers 7.12502
lthumb 0.762257 25.4256
rfemur -12.3827 -2.81182 19.4245
rtibia 20.2963
rfoot -13.8238 -3.04248
rtoes 10.6534
lfemur -10.8081 6.71987 -17.6661
ltibia 17.6429
lfoot -10.4651 7.13965
ltoes -3.39226
133
root 0.293443 17.574 -13.9553 6.78358 0.155363 -1.31347
lowerback -2.60828 -0.333609 0.0168994
upperback 2.61056 -0.504958 1.54841
thorax 4.16665 -0.275977 1.55646
lowerneck -14.14 0.135221 -2.04482
upperneck 29.6706 0.324083 1.38989
head 12.0886 0.0930388 0.922953
rclavicle 1.2424e-015 -1.23246e-014
rhumerus -17.0068 -12.8079 -85.632
rradius 23.7041
rwrist 32.84
rhand -19.4775 -26.3396
rfingers 7.12502
rthumb 6.84427 -56.209
lclavicle 1.2424e-015 -1.23246e-014
lhumerus -14.2011 -6.48583 92.1133
lradius 19.3016
lwrist 2.23061
lhand -25.7692 -4.50382
lfingers 7.12502
lthumb 0.768696 25.4745
rfemur -12.3887 -2.8083 19.4202
rtibia 20.3069
rfoot -13.821 -3.04584
rtoes 10.6496
lfemur -10.8184 6.72732 -17.67
ltibia 17.6627
lfoot -10.4725 7.13049
ltoes -3.37087
134
root 0.294996 17.5738 -13.9576 6.77756 0.156903 -1.31938
lowerback -2.58819 -0.337013 0.0274426
upperback 2.60745 -0.509787 1.54942
thorax 4.15207 -0.278021 1.55136
lowerneck -14.1531 0.137032 -2.03909
upperneck 29.6857 0.328639 1.37919
head 12.0973 0.094242 0.918787
rclavicle -1.54058e-015 -1.59028e-015
rhumerus -16.9529 -12.763 -85.6796
rradius 23.7221
rwrist 32.8086
rhand -19.4797 -26.3018
rfingers 7.12502
rthumb 6.84212 -56.1712
lclavicle -1.54058e-015 -1.59028e-015
lhumerus -14.1969 -6.51907 92.1615
lradius 19.3274
lwrist 2.28088
lhand -25.7578 -4.46229
lfingers 7.12502
lthumb 0.779677 25.516
rfemur -12.3945 -2.80346 19.4214
rtibia 20.3146
rfoot -13.8167 -3.05182
rtoes 10.6461
lfemur -10.8335 6.73633 -17.6687
ltibia 17.6863
lfoot -10.4776 7.11863
ltoes -3.36367
